<svg width="24" height="29" viewBox="0 0 24 29" fill="none" xmlns="http://www.w3.org/2000/svg">
<circle cx="7" cy="6" r="6" fill="#0098ED"/>
<path d="M15.75 15.5V14.375C15.75 13.8777 15.5524 13.4008 15.2008 13.0492C14.8492 12.6975 14.3722 12.5 13.875 12.5C13.3777 12.5 12.9008 12.6975 12.5491 13.0492C12.1975 13.4008 12 13.8777 12 14.375V8.375C12 7.87772 11.8024 7.40081 11.4508 7.04917C11.0992 6.69754 10.6222 6.5 10.125 6.5C9.62768 6.5 9.15077 6.69754 8.79913 7.04917C8.4475 7.40081 8.24996 7.87772 8.24996 8.375V19.7469L6.19683 16.1844C5.94819 15.753 5.53837 15.438 5.05751 15.3088C4.57666 15.1796 4.06416 15.2467 3.63277 15.4953C3.20138 15.744 2.88643 16.1538 2.7572 16.6346C2.62798 17.1155 2.69507 17.628 2.94371 18.0594C5.99996 24.5 7.85621 26.75 12 26.75C12.9849 26.75 13.9601 26.556 14.8701 26.1791C15.78 25.8022 16.6068 25.2497 17.3033 24.5533C17.9997 23.8569 18.5522 23.0301 18.9291 22.1201C19.306 21.2102 19.5 20.2349 19.5 19.25V15.5C19.5 15.0027 19.3024 14.5258 18.9508 14.1742C18.5992 13.8225 18.1222 13.625 17.625 13.625C17.1277 13.625 16.6508 13.8225 16.2991 14.1742C15.9475 14.5258 15.75 15.0027 15.75 15.5Z" fill="white" stroke="#495057" stroke-width="2" stroke-linecap="round" stroke-linejoin="round"/>
</svg>
