<svg width="117" height="32" viewBox="0 0 117 32" fill="none" xmlns="http://www.w3.org/2000/svg">
<path d="M8.56 4.08H7.648C8.112 4.56 8.352 5.104 8.352 5.76C8.352 6.624 8.032 7.328 7.392 7.872C6.752 8.432 5.792 8.704 4.528 8.704C3.248 8.704 2.288 8.432 1.664 7.872C1.024 7.328 0.704 6.624 0.704 5.76C0.704 5.104 0.928 4.56 1.392 4.08H0.496V1.856H3.056V0.559999H6.016V1.856H8.56V4.08ZM4.528 6.624C4.848 6.624 5.136 6.544 5.376 6.368C5.6 6.208 5.712 5.936 5.712 5.552C5.712 5.232 5.6 4.992 5.392 4.8C5.168 4.64 4.88 4.544 4.528 4.544C4.16 4.544 3.872 4.64 3.664 4.8C3.44 4.992 3.344 5.232 3.344 5.552C3.344 5.936 3.456 6.208 3.68 6.368C3.904 6.544 4.176 6.624 4.528 6.624ZM14.624 3.248V6.016C14.496 6.016 14.336 6.032 14.16 6.032C13.968 6.048 13.776 6.064 13.6 6.096C13.408 6.128 13.232 6.144 13.072 6.176C12.96 6.208 12.88 6.24 12.816 6.272V8.832H10.032V1.04H12.816V3.616C12.992 3.504 13.2 3.424 13.472 3.344C13.76 3.28 14.144 3.248 14.624 3.248ZM10.016 13.936V11.776H1.376V9.376H12.816V13.936H10.016ZM15.483 3.904C17.211 3.648 18.507 3.28 19.371 2.8C20.235 2.336 20.699 1.856 20.763 1.376L20.795 1.088H23.787V1.264C23.739 1.616 23.659 1.92 23.547 2.224C24.283 2.352 25.003 2.528 25.707 2.768C26.635 3.104 27.563 3.52 28.459 4.016L27.371 5.984C26.891 5.728 26.427 5.504 26.011 5.296C25.579 5.104 25.147 4.944 24.715 4.784C24.283 4.64 23.835 4.512 23.371 4.384C22.955 4.304 22.491 4.208 22.027 4.112C21.899 4.208 21.755 4.288 21.627 4.368C20.331 5.136 18.523 5.664 16.187 5.952L15.483 3.904ZM28.459 8.464H15.227V6.464H28.459V8.464ZM24.987 8.928H27.755V13.92H15.979V8.912H18.779V9.712H24.987V8.928ZM18.779 11.552V12.08H24.987V11.552H18.779ZM29.5094 5.76C30.2454 5.536 30.9334 5.264 31.5734 4.96C32.1974 4.672 32.7574 4.32 33.2374 3.936C33.7174 3.568 34.1014 3.152 34.4054 2.672C34.6934 2.208 34.8694 1.68 34.9334 1.088H37.9254C37.8774 1.76 37.7334 2.368 37.5094 2.928C38.3894 3.216 39.1894 3.584 39.9894 4.016C40.8214 4.528 41.6854 5.184 42.5814 6.016L40.7574 8.064C40.0214 7.328 39.2214 6.72 38.3734 6.224C37.6054 5.808 36.8534 5.456 36.0694 5.184C35.9094 5.36 35.7334 5.52 35.5574 5.68C34.8854 6.256 34.1494 6.72 33.3334 7.104C32.5014 7.488 31.6694 7.792 30.8054 8L29.5094 5.76ZM34.3734 13.936V11.312H29.3814V8.832H42.6134V11.312H37.4614V13.936H34.3734ZM55.3437 1.152V1.92C55.2957 2.304 55.1357 2.688 54.8797 3.072C54.6077 3.472 54.2717 3.84 53.8877 4.176C53.8237 4.24 53.7437 4.288 53.6797 4.352C54.5917 4.496 55.5677 4.752 56.6237 5.152L55.5997 7.008C54.5437 6.592 53.5517 6.32 52.6397 6.16C51.9037 6.064 51.1837 6 50.4477 6.016C50.2557 6.064 50.0797 6.112 49.8877 6.16C49.3437 6.304 48.7997 6.432 48.2237 6.528C47.6477 6.624 47.0557 6.72 46.4637 6.784C45.8557 6.864 45.2957 6.912 44.7517 6.928L43.9837 4.944C44.8477 4.88 45.6797 4.8 46.4957 4.688C47.2957 4.592 48.0157 4.464 48.6877 4.336C49.3437 4.208 49.9197 4.08 50.3997 3.92C50.8637 3.792 51.1997 3.632 51.4077 3.472H44.8157V1.152H55.3437ZM49.0077 11.024V9.744H43.5357V7.424H56.7677V9.744H52.0957V11.024H49.0077ZM47.0397 10.352V11.552H56.2397V13.872H44.2397V10.352H47.0397Z" fill="white"/>
<path d="M6.5416 19.0928V20.276C6.4872 20.9288 6.2968 21.5136 5.9976 22.0304C5.984 22.0304 5.984 22.044 5.984 22.044C6.0792 22.112 6.1608 22.1664 6.256 22.2344C6.7184 22.6016 7.1944 23.0368 7.684 23.5536L6.1064 25.1584C5.6712 24.6552 5.2224 24.2064 4.7736 23.812C4.692 23.7576 4.624 23.6896 4.5424 23.6352C4.1072 23.9616 3.6312 24.2336 3.1008 24.4648C2.4752 24.7504 1.8224 24.9544 1.1696 25.0904L0.136 23.3632C1.088 23.1184 1.904 22.8056 2.6112 22.4112C3.3048 22.0304 3.808 21.5816 4.1208 21.0648H0.612V19.0928H6.5416ZM8.636 20.4936V18.984H11.016V25.1312H8.636V22.5472C8.5272 22.588 8.3912 22.6152 8.228 22.6152C8.0512 22.6424 7.8608 22.6424 7.6432 22.6424L7.14 22.656V20.548H8.0784C8.2144 20.548 8.3232 20.548 8.4048 20.5344C8.4864 20.5344 8.5544 20.5208 8.636 20.4936ZM6.4056 28.5176C6.8408 28.5176 7.1944 28.504 7.48 28.4768C7.752 28.4496 7.9696 28.4088 8.1328 28.3544C8.296 28.3 8.4048 28.232 8.4728 28.1504C8.5272 28.0688 8.5544 27.9736 8.5544 27.8648C8.5544 27.7696 8.5272 27.6744 8.4728 27.5928C8.4048 27.5112 8.296 27.4432 8.1328 27.3888C7.9696 27.3344 7.752 27.2936 7.48 27.2528C7.1944 27.2256 6.8408 27.212 6.4056 27.212C5.9568 27.212 5.5896 27.2256 5.3176 27.2528C5.032 27.2936 4.8144 27.3344 4.6648 27.3888C4.5016 27.4432 4.3928 27.5112 4.3384 27.5928C4.284 27.6744 4.2568 27.7696 4.2568 27.8648C4.2568 27.9736 4.284 28.0688 4.3384 28.1504C4.3928 28.232 4.5016 28.3 4.6648 28.3544C4.8144 28.4088 5.032 28.4496 5.3176 28.4768C5.5896 28.504 5.9568 28.5176 6.4056 28.5176ZM6.4056 30.34C5.4672 30.34 4.692 30.272 4.08 30.1632C3.4544 30.0408 2.9512 29.8776 2.5976 29.66C2.2168 29.4424 1.9584 29.184 1.8224 28.8712C1.6592 28.572 1.5912 28.2456 1.5912 27.8648C1.5912 27.5248 1.6592 27.1984 1.8224 26.8992C1.972 26.6 2.2304 26.3416 2.6112 26.1104C2.9784 25.8928 3.468 25.716 4.0936 25.58C4.7056 25.4576 5.4808 25.3896 6.4056 25.3896C7.3168 25.3896 8.0784 25.4576 8.704 25.58C9.316 25.716 9.8056 25.8928 10.1864 26.1104C10.5536 26.3416 10.8256 26.6 10.9888 26.8992C11.1384 27.1984 11.22 27.5248 11.22 27.8648C11.22 28.2456 11.1384 28.572 10.9888 28.8712C10.8256 29.184 10.5672 29.4424 10.2 29.66C9.8328 29.8776 9.3432 30.0408 8.7312 30.1632C8.1056 30.272 7.3304 30.34 6.4056 30.34ZM19.1912 23.9752H12.5136V19.0928H19.1912V23.9752ZM16.9472 22.2752V20.7928H14.7576V22.2752H16.9472ZM20.2928 24.1112V18.984H22.6592V24.1112H20.2928ZM12.9216 26.4504H20.3472V26.0696H12.9896V24.5192H22.6592V27.9328H15.2336V28.3544H22.7952V29.9048H12.9216V26.4504ZM23.536 19.4192H31.22V21.6496H28.5544V29.5104H26.1336V21.6496H23.536V19.4192ZM39.7431 21.568H34.4255V23.404L39.4847 23.3904V25.4984H34.4255V27.3616H37.6487C38.6415 27.3616 39.1719 27.2936 39.8111 27.212V29.32C39.2127 29.4696 38.1111 29.5104 37.3359 29.5104H32.0455V19.4192H39.7431V21.568ZM46.3678 29.5648C45.4022 29.8368 44.0966 29.8504 42.8862 29.5104C42.2062 29.2792 41.1046 28.64 40.5062 27.9736L42.111 26.2328C43.471 27.1848 44.5318 27.5928 45.307 27.4024C46.0142 27.2256 46.1638 26.4096 45.5518 26.0152C44.8582 25.5392 44.1646 25.3896 42.9406 24.7368C41.2134 23.7712 40.7782 22.316 41.3766 21.1464C41.9886 19.8544 43.3078 19.1744 44.8582 19.1744C46.395 19.1744 47.6734 19.7456 48.5574 20.6976L46.9798 22.452C46.3134 21.8808 45.3206 21.4728 44.6678 21.4728C44.287 21.4728 43.9198 21.6904 43.9198 22.1392C43.9198 22.5744 44.4502 22.9144 45.919 23.6352C47.7686 24.4784 48.4622 25.3216 48.5982 26.3416C48.843 27.7968 48.0678 29.0888 46.3678 29.5648ZM49.1906 19.4192H56.8746V21.6496H54.209V29.5104H51.7882V21.6496H49.1906V19.4192Z" fill="white"/>
<rect x="64" width="53" height="32" rx="4" fill="white"/>
<path d="M88.722 6.985V9.009C88.699 9.653 88.699 10.228 88.699 10.734C88.676 11.263 88.653 11.746 88.63 12.183C88.584 12.643 88.538 13.034 88.492 13.402H84.559C84.605 13.057 84.628 12.574 84.674 11.93C84.674 11.309 84.697 10.78 84.697 10.32H71.679V6.985H88.722ZM77.797 18.968V17.68H70.621V14.345H89.642V17.68H82.236V18.968H88.676V25.408H84.651V22.418H71.61V18.968H77.797ZM96.8329 10.55C96.6029 10.55 96.3729 10.619 96.1659 10.734C95.9359 10.872 95.7519 11.102 95.5909 11.47C95.4299 11.838 95.3149 12.367 95.2229 13.034C95.1079 13.724 95.0619 14.644 95.0619 15.748C95.0619 16.898 95.1079 17.795 95.2229 18.462C95.3149 19.152 95.4299 19.681 95.5909 20.049C95.7519 20.417 95.9359 20.67 96.1659 20.762C96.3729 20.9 96.6029 20.946 96.8329 20.946C97.0399 20.946 97.2469 20.9 97.4769 20.762C97.6839 20.67 97.8679 20.417 98.0519 20.049C98.1899 19.681 98.3279 19.152 98.4429 18.462C98.5349 17.795 98.6039 16.898 98.6039 15.748C98.6039 14.644 98.5349 13.724 98.4429 13.034C98.3279 12.367 98.1899 11.838 98.0519 11.47C97.8679 11.102 97.6839 10.872 97.4769 10.734C97.2469 10.619 97.0399 10.55 96.8329 10.55ZM96.8329 6.755C97.7069 6.755 98.4889 6.916 99.2019 7.238C99.8919 7.583 100.467 8.112 100.973 8.825C101.456 9.561 101.847 10.481 102.123 11.608C102.238 12.137 102.33 12.712 102.399 13.333H104.952V6.87H108.977V25.408H104.952V16.875C104.63 16.921 104.308 16.944 103.963 16.944C103.595 16.967 103.204 16.99 102.836 16.99C102.721 16.99 102.606 17.013 102.468 17.013C102.422 18.117 102.307 19.083 102.123 19.911C101.847 21.061 101.456 21.981 100.973 22.694C100.467 23.43 99.8919 23.936 99.2019 24.258C98.4889 24.58 97.7069 24.741 96.8329 24.741C95.9359 24.741 95.1539 24.58 94.4639 24.258C93.7509 23.936 93.1529 23.43 92.6699 22.694C92.1639 21.981 91.7959 21.061 91.5429 19.911C91.2669 18.784 91.1519 17.404 91.1519 15.748C91.1519 14.138 91.2669 12.758 91.5429 11.608C91.7959 10.481 92.1639 9.561 92.6699 8.825C93.1529 8.112 93.7509 7.583 94.4639 7.238C95.1539 6.916 95.9359 6.755 96.8329 6.755Z" fill="#2A3E6C"/>
</svg>
