<svg width="118" height="32" viewBox="0 0 118 32" fill="none" xmlns="http://www.w3.org/2000/svg">
<path d="M8.56 4.08H7.648C7.872 4.32533 8.04267 4.58667 8.16 4.864C8.288 5.14133 8.352 5.44 8.352 5.76C8.352 6.19733 8.272 6.592 8.112 6.944C7.952 7.296 7.712 7.60533 7.392 7.872C7.072 8.16 6.672 8.37333 6.192 8.512C5.712 8.64 5.15733 8.704 4.528 8.704C3.888 8.704 3.328 8.64 2.848 8.512C2.368 8.37333 1.97333 8.16 1.664 7.872C1.344 7.60533 1.104 7.296 0.944 6.944C0.784 6.592 0.704 6.19733 0.704 5.76C0.704 5.44 0.757333 5.14133 0.864 4.864C0.981333 4.58667 1.15733 4.32533 1.392 4.08H0.496V1.856H3.056V0.559999H6.016V1.856H8.56V4.08ZM4.528 6.624C4.688 6.624 4.83733 6.608 4.976 6.576C5.11467 6.53333 5.248 6.464 5.376 6.368C5.48267 6.29333 5.56267 6.18667 5.616 6.048C5.68 5.90933 5.712 5.744 5.712 5.552C5.712 5.392 5.68 5.25333 5.616 5.136C5.56267 5.008 5.488 4.896 5.392 4.8C5.27467 4.72533 5.14133 4.66667 4.992 4.624C4.85333 4.57067 4.69867 4.544 4.528 4.544C4.336 4.544 4.16533 4.57067 4.016 4.624C3.87733 4.66667 3.76 4.72533 3.664 4.8C3.54667 4.896 3.46133 5.008 3.408 5.136C3.36533 5.25333 3.344 5.392 3.344 5.552C3.344 5.744 3.37067 5.90933 3.424 6.048C3.47733 6.18667 3.56267 6.29333 3.68 6.368C3.78667 6.464 3.90933 6.53333 4.048 6.576C4.18667 6.608 4.34667 6.624 4.528 6.624ZM14.624 3.248V6.016C14.592 6.016 14.5547 6.02133 14.512 6.032C14.48 6.032 14.4427 6.032 14.4 6.032C14.3573 6.032 14.3147 6.032 14.272 6.032C14.24 6.032 14.2027 6.032 14.16 6.032C14.064 6.04267 13.968 6.05333 13.872 6.064C13.776 6.07467 13.6853 6.08533 13.6 6.096C13.5467 6.10667 13.4933 6.11733 13.44 6.128C13.3973 6.128 13.3547 6.13333 13.312 6.144C13.2693 6.15467 13.2267 6.16533 13.184 6.176C13.1413 6.176 13.104 6.176 13.072 6.176C13.008 6.19733 12.9547 6.21867 12.912 6.24C12.88 6.25067 12.848 6.26133 12.816 6.272V8.832H10.032V1.04H12.816V3.616C12.9013 3.56267 12.9973 3.51467 13.104 3.472C13.2107 3.42933 13.3333 3.38667 13.472 3.344C13.6107 3.312 13.776 3.29067 13.968 3.28C14.16 3.25867 14.3787 3.248 14.624 3.248ZM10.016 13.936V11.776H1.376V9.376H12.816V13.936H10.016ZM15.483 3.904C16.347 3.776 17.099 3.62133 17.739 3.44C18.3897 3.25867 18.9337 3.04533 19.371 2.8C19.7977 2.576 20.1283 2.34667 20.363 2.112C20.5977 1.86667 20.731 1.62133 20.763 1.376L20.795 1.088H23.787V1.264C23.755 1.44533 23.7177 1.616 23.675 1.776C23.643 1.92533 23.6003 2.07467 23.547 2.224C23.9097 2.288 24.2723 2.368 24.635 2.464C24.9977 2.54933 25.355 2.65067 25.707 2.768C26.1657 2.93867 26.6243 3.13067 27.083 3.344C27.5523 3.54667 28.011 3.77067 28.459 4.016L27.371 5.984C27.243 5.92 27.1203 5.86133 27.003 5.808C26.8857 5.744 26.7737 5.68533 26.667 5.632C26.5497 5.57867 26.4323 5.52533 26.315 5.472C26.2083 5.408 26.107 5.34933 26.011 5.296C25.787 5.2 25.5683 5.11467 25.355 5.04C25.1417 4.95467 24.9283 4.86933 24.715 4.784C24.491 4.72 24.267 4.656 24.043 4.592C23.819 4.51733 23.595 4.448 23.371 4.384C23.1577 4.352 22.9337 4.31467 22.699 4.272C22.475 4.21867 22.251 4.16533 22.027 4.112C21.995 4.144 21.9577 4.17067 21.915 4.192C21.883 4.21333 21.851 4.23467 21.819 4.256C21.787 4.27733 21.755 4.29867 21.723 4.32C21.691 4.34133 21.659 4.35733 21.627 4.368C20.9763 4.752 20.1977 5.07733 19.291 5.344C18.3843 5.61067 17.3497 5.81333 16.187 5.952L15.483 3.904ZM28.459 8.464H15.227V6.464H28.459V8.464ZM24.987 8.928H27.755V13.92H15.979V8.912H18.779V9.712H24.987V8.928ZM18.779 11.552V12.08H24.987V11.552H18.779ZM29.5094 5.76C29.872 5.65333 30.224 5.536 30.5654 5.408C30.9174 5.26933 31.2534 5.12 31.5734 4.96C31.8827 4.82133 32.176 4.66667 32.4534 4.496C32.7307 4.31467 32.992 4.128 33.2374 3.936C33.472 3.75467 33.6854 3.56267 33.8774 3.36C34.0694 3.14667 34.2454 2.91733 34.4054 2.672C34.544 2.448 34.656 2.20267 34.7414 1.936C34.8374 1.66933 34.9014 1.38667 34.9334 1.088H37.9254C37.8934 1.42933 37.84 1.75467 37.7654 2.064C37.7014 2.36267 37.616 2.65067 37.5094 2.928C37.9467 3.07733 38.368 3.24267 38.7734 3.424C39.1787 3.60533 39.584 3.80267 39.9894 4.016C40.4054 4.272 40.8267 4.56533 41.2534 4.896C41.6907 5.22667 42.1334 5.6 42.5814 6.016L40.7574 8.064C40.384 7.70133 39.9947 7.37067 39.5894 7.072C39.1947 6.76267 38.7894 6.48 38.3734 6.224C37.9894 6.02133 37.6054 5.83467 37.2214 5.664C36.8374 5.48267 36.4534 5.32267 36.0694 5.184C35.984 5.28 35.8987 5.37067 35.8134 5.456C35.728 5.53067 35.6427 5.60533 35.5574 5.68C35.216 5.968 34.8587 6.22933 34.4854 6.464C34.1227 6.69867 33.7387 6.912 33.3334 7.104C32.9174 7.296 32.496 7.472 32.0694 7.632C31.6534 7.78133 31.232 7.904 30.8054 8L29.5094 5.76ZM34.3734 13.936V11.312H29.3814V8.832H42.6134V11.312H37.4614V13.936H34.3734ZM55.3437 1.152V1.92C55.3117 2.112 55.2584 2.304 55.1837 2.496C55.1091 2.688 55.0077 2.88 54.8797 3.072C54.7411 3.27467 54.5864 3.472 54.4157 3.664C54.2557 3.84533 54.0797 4.016 53.8877 4.176C53.8664 4.19733 53.8451 4.21867 53.8237 4.24C53.8131 4.25067 53.7971 4.26133 53.7757 4.272C53.7544 4.28267 53.7331 4.29867 53.7117 4.32C53.7011 4.33067 53.6904 4.34133 53.6797 4.352C54.1277 4.42667 54.5971 4.53333 55.0877 4.672C55.5784 4.8 56.0904 4.96 56.6237 5.152L55.5997 7.008C55.0664 6.80533 54.5491 6.63467 54.0477 6.496C53.5571 6.35733 53.0877 6.24533 52.6397 6.16C52.2664 6.11733 51.8984 6.08533 51.5357 6.064C51.1731 6.032 50.8104 6.016 50.4477 6.016C50.3944 6.03733 50.3411 6.05333 50.2877 6.064C50.2451 6.07467 50.2024 6.08533 50.1597 6.096C50.1171 6.10667 50.0691 6.11733 50.0157 6.128C49.9731 6.13867 49.9304 6.14933 49.8877 6.16C49.6104 6.23467 49.3331 6.304 49.0557 6.368C48.7891 6.432 48.5117 6.48533 48.2237 6.528C47.9357 6.58133 47.6424 6.62933 47.3437 6.672C47.0451 6.71467 46.7517 6.752 46.4637 6.784C46.1544 6.82667 45.8557 6.864 45.5677 6.896C45.2904 6.91733 45.0184 6.928 44.7517 6.928L43.9837 4.944C44.4104 4.912 44.8317 4.88 45.2477 4.848C45.6637 4.80533 46.0797 4.752 46.4957 4.688C46.8904 4.64533 47.2691 4.592 47.6317 4.528C47.9944 4.464 48.3464 4.4 48.6877 4.336C49.0077 4.272 49.3117 4.208 49.5997 4.144C49.8877 4.08 50.1544 4.00533 50.3997 3.92C50.6237 3.856 50.8211 3.78667 50.9917 3.712C51.1624 3.63733 51.3011 3.55733 51.4077 3.472H44.8157V1.152H55.3437ZM49.0077 11.024V9.744H43.5357V7.424H56.7677V9.744H52.0957V11.024H49.0077ZM47.0397 10.352V11.552H56.2397V13.872H44.2397V10.352H47.0397Z" fill="white"/>
<path d="M6.5416 19.0928V20.276C6.5144 20.6024 6.45093 20.9152 6.3512 21.2144C6.26053 21.5045 6.14267 21.7765 5.9976 22.0304C5.98853 22.0304 5.984 22.0349 5.984 22.044C6.00213 22.0621 6.02027 22.0803 6.0384 22.0984C6.0656 22.1165 6.0928 22.1301 6.12 22.1392C6.13813 22.1573 6.15627 22.1755 6.1744 22.1936C6.2016 22.2117 6.2288 22.2253 6.256 22.2344C6.48267 22.4248 6.71387 22.6288 6.9496 22.8464C7.1944 23.064 7.4392 23.2997 7.684 23.5536L6.1064 25.1584C5.8888 24.9136 5.66667 24.6779 5.44 24.4512C5.21333 24.2245 4.9912 24.0115 4.7736 23.812C4.7464 23.8029 4.72373 23.7939 4.7056 23.7848C4.68747 23.7667 4.66933 23.7485 4.6512 23.7304C4.63307 23.7123 4.61493 23.6987 4.5968 23.6896C4.57867 23.6715 4.56053 23.6533 4.5424 23.6352C4.3248 23.7984 4.0936 23.9525 3.8488 24.0976C3.61307 24.2336 3.36373 24.356 3.1008 24.4648C2.78347 24.6099 2.4616 24.7368 2.1352 24.8456C1.81787 24.9453 1.496 25.0269 1.1696 25.0904L0.136 23.3632C0.607467 23.2453 1.0472 23.1093 1.4552 22.9552C1.87227 22.792 2.2576 22.6107 2.6112 22.4112C2.95573 22.2208 3.2504 22.0168 3.4952 21.7992C3.74907 21.5725 3.9576 21.3277 4.1208 21.0648H0.612V19.0928H6.5416ZM8.636 20.4936V18.984H11.016V25.1312H8.636V22.5472C8.5816 22.5744 8.51813 22.5925 8.4456 22.6016C8.38213 22.6107 8.3096 22.6152 8.228 22.6152C8.13733 22.6333 8.04213 22.6424 7.9424 22.6424C7.85173 22.6424 7.752 22.6424 7.6432 22.6424L7.14 22.656V20.548H8.0784C8.14187 20.548 8.2008 20.548 8.2552 20.548C8.3096 20.548 8.35947 20.5435 8.4048 20.5344C8.44107 20.5344 8.47733 20.5344 8.5136 20.5344C8.54987 20.5253 8.59067 20.5117 8.636 20.4936ZM6.4056 28.5176C6.6232 28.5176 6.81813 28.5176 6.9904 28.5176C7.17173 28.5085 7.33493 28.4949 7.48 28.4768C7.616 28.4677 7.7384 28.4541 7.8472 28.436C7.956 28.4088 8.0512 28.3816 8.1328 28.3544C8.2144 28.3272 8.2824 28.3 8.3368 28.2728C8.3912 28.2365 8.43653 28.1957 8.4728 28.1504C8.5 28.1141 8.51813 28.0733 8.5272 28.028C8.54533 27.9736 8.5544 27.9192 8.5544 27.8648C8.5544 27.8195 8.54533 27.7741 8.5272 27.7288C8.51813 27.6835 8.5 27.6381 8.4728 27.5928C8.43653 27.5565 8.3912 27.5203 8.3368 27.484C8.2824 27.4477 8.2144 27.416 8.1328 27.3888C8.0512 27.3616 7.956 27.3389 7.8472 27.3208C7.7384 27.3027 7.616 27.28 7.48 27.2528C7.33493 27.2437 7.17173 27.2347 6.9904 27.2256C6.81813 27.2165 6.6232 27.212 6.4056 27.212C6.17893 27.212 5.97493 27.2165 5.7936 27.2256C5.61227 27.2347 5.4536 27.2437 5.3176 27.2528C5.17253 27.28 5.0456 27.3027 4.9368 27.3208C4.828 27.3389 4.73733 27.3616 4.6648 27.3888C4.5832 27.416 4.5152 27.4477 4.4608 27.484C4.4064 27.5203 4.3656 27.5565 4.3384 27.5928C4.3112 27.6381 4.28853 27.6835 4.2704 27.7288C4.26133 27.7741 4.2568 27.8195 4.2568 27.8648C4.2568 27.9192 4.26133 27.9736 4.2704 28.028C4.28853 28.0733 4.3112 28.1141 4.3384 28.1504C4.3656 28.1957 4.4064 28.2365 4.4608 28.2728C4.5152 28.3 4.5832 28.3272 4.6648 28.3544C4.73733 28.3816 4.828 28.4088 4.9368 28.436C5.0456 28.4541 5.17253 28.4677 5.3176 28.4768C5.4536 28.4949 5.61227 28.5085 5.7936 28.5176C5.97493 28.5176 6.17893 28.5176 6.4056 28.5176ZM6.4056 30.34C5.93413 30.34 5.50347 30.3219 5.1136 30.2856C4.72373 30.2584 4.3792 30.2176 4.08 30.1632C3.76267 30.1088 3.47707 30.0408 3.2232 29.9592C2.9784 29.8685 2.76987 29.7688 2.5976 29.66C2.4072 29.5512 2.244 29.4333 2.108 29.3064C1.98107 29.1795 1.88587 29.0344 1.8224 28.8712C1.7408 28.7261 1.68187 28.572 1.6456 28.4088C1.60933 28.2365 1.5912 28.0552 1.5912 27.8648C1.5912 27.7016 1.60933 27.5384 1.6456 27.3752C1.68187 27.212 1.7408 27.0533 1.8224 26.8992C1.89493 26.7541 1.99467 26.6181 2.1216 26.4912C2.2576 26.3552 2.4208 26.2283 2.6112 26.1104C2.79253 26.0016 3.0056 25.9064 3.2504 25.8248C3.4952 25.7341 3.77627 25.6525 4.0936 25.58C4.3928 25.5256 4.73733 25.4803 5.1272 25.444C5.51707 25.4077 5.9432 25.3896 6.4056 25.3896C6.85893 25.3896 7.276 25.4077 7.6568 25.444C8.0376 25.4803 8.38667 25.5256 8.704 25.58C9.0032 25.6525 9.2752 25.7341 9.52 25.8248C9.77387 25.9064 9.996 26.0016 10.1864 26.1104C10.3677 26.2283 10.5264 26.3552 10.6624 26.4912C10.7984 26.6181 10.9072 26.7541 10.9888 26.8992C11.0613 27.0533 11.1157 27.212 11.152 27.3752C11.1973 27.5384 11.22 27.7016 11.22 27.8648C11.22 28.0552 11.1973 28.2365 11.152 28.4088C11.1157 28.572 11.0613 28.7261 10.9888 28.8712C10.9072 29.0344 10.7984 29.1795 10.6624 29.3064C10.5355 29.4333 10.3813 29.5512 10.2 29.66C10.0096 29.7688 9.792 29.8685 9.5472 29.9592C9.3024 30.0408 9.0304 30.1088 8.7312 30.1632C8.41387 30.2176 8.06027 30.2584 7.6704 30.2856C7.2896 30.3219 6.868 30.34 6.4056 30.34ZM19.1912 23.9752H12.5136V19.0928H19.1912V23.9752ZM16.9472 22.2752V20.7928H14.7576V22.2752H16.9472ZM20.2928 24.1112V18.984H22.6592V24.1112H20.2928ZM12.9216 26.4504H20.3472V26.0696H12.9896V24.5192H22.6592V27.9328H15.2336V28.3544H22.7952V29.9048H12.9216V26.4504ZM23.536 19.4192H31.22V21.6496H28.5544V29.5104H26.1336V21.6496H23.536V19.4192ZM39.7431 21.568H34.4255V23.404L39.4847 23.3904V25.4984H34.4255V27.3616H37.6487C37.8935 27.3616 38.1111 27.3616 38.3015 27.3616C38.501 27.3525 38.6869 27.3389 38.8591 27.3208C39.0223 27.3117 39.181 27.2981 39.3351 27.28C39.4893 27.2619 39.6479 27.2392 39.8111 27.212V29.32C39.5119 29.4016 39.1175 29.456 38.6279 29.4832C38.1474 29.5013 37.7167 29.5104 37.3359 29.5104H32.0455V19.4192H39.7431V21.568ZM46.3678 29.5648C45.8782 29.7008 45.3252 29.7688 44.7086 29.7688C44.0921 29.7688 43.4846 29.6827 42.8862 29.5104C42.714 29.456 42.519 29.3789 42.3014 29.2792C42.0929 29.1704 41.8798 29.048 41.6622 28.912C41.4446 28.776 41.2316 28.6309 41.023 28.4768C40.8236 28.3136 40.6513 28.1459 40.5062 27.9736L42.111 26.2328C42.791 26.7133 43.394 27.0533 43.9198 27.2528C44.4548 27.4523 44.9172 27.5021 45.307 27.4024C45.4793 27.3661 45.6153 27.2936 45.715 27.1848C45.8238 27.0669 45.8918 26.9355 45.919 26.7904C45.9462 26.6544 45.9281 26.5184 45.8646 26.3824C45.8012 26.2373 45.6969 26.1149 45.5518 26.0152C45.3705 25.8973 45.1892 25.7976 45.0078 25.716C44.8356 25.6253 44.6452 25.5347 44.4366 25.444C44.2281 25.3624 44.0014 25.2672 43.7566 25.1584C43.5118 25.0405 43.2398 24.9 42.9406 24.7368C42.0702 24.2563 41.5172 23.6851 41.2814 23.0232C41.0457 22.3613 41.0774 21.7357 41.3766 21.1464C41.6758 20.5027 42.1337 20.0131 42.7502 19.6776C43.3758 19.3421 44.0785 19.1744 44.8582 19.1744C45.6198 19.1744 46.3134 19.3104 46.939 19.5824C47.5737 19.8544 48.1132 20.2261 48.5574 20.6976L46.9798 22.452C46.6444 22.1709 46.2545 21.9397 45.8102 21.7584C45.375 21.568 44.9942 21.4728 44.6678 21.4728C44.4774 21.4728 44.3052 21.5317 44.151 21.6496C43.9969 21.7584 43.9198 21.9216 43.9198 22.1392C43.9198 22.3568 44.0694 22.5744 44.3686 22.792C44.6678 23.0005 45.1846 23.2816 45.919 23.6352C46.8438 24.0613 47.5012 24.492 47.891 24.9272C48.29 25.3624 48.5257 25.8339 48.5982 26.3416C48.7161 27.076 48.5846 27.7379 48.2038 28.3272C47.823 28.9165 47.211 29.3291 46.3678 29.5648ZM49.1906 19.4192H56.8746V21.6496H54.209V29.5104H51.7882V21.6496H49.1906V19.4192Z" fill="white"/>
<rect x="64" width="54" height="32" rx="4" fill="white"/>
<path d="M70.805 13.655C71.3263 13.5017 71.8323 13.333 72.323 13.149C72.829 12.9497 73.312 12.735 73.772 12.505C74.2167 12.3057 74.6383 12.0833 75.037 11.838C75.4357 11.5773 75.8113 11.309 76.164 11.033C76.5013 10.7723 76.808 10.4963 77.084 10.205C77.36 9.89833 77.613 9.56867 77.843 9.216C78.0423 8.894 78.2033 8.54133 78.326 8.158C78.464 7.77467 78.556 7.36833 78.602 6.939H82.903C82.857 7.42967 82.7803 7.89733 82.673 8.342C82.581 8.77133 82.4583 9.18533 82.305 9.584C82.9337 9.79867 83.5393 10.0363 84.122 10.297C84.7047 10.5577 85.2873 10.8413 85.87 11.148C86.468 11.516 87.0737 11.9377 87.687 12.413C88.3157 12.8883 88.952 13.425 89.596 14.023L86.974 16.967C86.4373 16.4457 85.8777 15.9703 85.295 15.541C84.7277 15.0963 84.145 14.69 83.547 14.322C82.995 14.0307 82.443 13.7623 81.891 13.517C81.339 13.2563 80.787 13.0263 80.235 12.827C80.1123 12.965 79.9897 13.0953 79.867 13.218C79.7443 13.3253 79.6217 13.4327 79.499 13.54C79.0083 13.954 78.4947 14.3297 77.958 14.667C77.4367 15.0043 76.8847 15.311 76.302 15.587C75.704 15.863 75.0983 16.116 74.485 16.346C73.887 16.5607 73.2813 16.737 72.668 16.875L70.805 13.655ZM77.797 25.408V21.636H70.621V18.071H89.642V21.636H82.236V25.408H77.797ZM102.652 11.24H101.341C101.663 11.5927 101.908 11.9683 102.077 12.367C102.261 12.7657 102.353 13.195 102.353 13.655C102.353 14.2837 102.238 14.851 102.008 15.357C101.778 15.863 101.433 16.3077 100.973 16.691C100.513 17.105 99.9379 17.4117 99.2479 17.611C98.5579 17.795 97.7606 17.887 96.8559 17.887C95.9359 17.887 95.1309 17.795 94.4409 17.611C93.7509 17.4117 93.1836 17.105 92.7389 16.691C92.2789 16.3077 91.9339 15.863 91.7039 15.357C91.4739 14.851 91.3589 14.2837 91.3589 13.655C91.3589 13.195 91.4356 12.7657 91.5889 12.367C91.7576 11.9683 92.0106 11.5927 92.3479 11.24H91.0599V8.043H94.7399V6.18H98.9949V8.043H102.652V11.24ZM96.8559 14.897C97.0859 14.897 97.3006 14.874 97.4999 14.828C97.6992 14.7667 97.8909 14.667 98.0749 14.529C98.2282 14.4217 98.3432 14.2683 98.4199 14.069C98.5119 13.8697 98.5579 13.632 98.5579 13.356C98.5579 13.126 98.5119 12.9267 98.4199 12.758C98.3432 12.574 98.2359 12.413 98.0979 12.275C97.9292 12.1677 97.7376 12.0833 97.5229 12.022C97.3236 11.9453 97.1012 11.907 96.8559 11.907C96.5799 11.907 96.3346 11.9453 96.1199 12.022C95.9206 12.0833 95.7519 12.1677 95.6139 12.275C95.4452 12.413 95.3226 12.574 95.2459 12.758C95.1846 12.9267 95.1539 13.126 95.1539 13.356C95.1539 13.632 95.1922 13.8697 95.2689 14.069C95.3456 14.2683 95.4682 14.4217 95.6369 14.529C95.7902 14.667 95.9666 14.7667 96.1659 14.828C96.3652 14.874 96.5952 14.897 96.8559 14.897ZM111.369 10.044V14.023C111.323 14.023 111.269 14.0307 111.208 14.046C111.162 14.046 111.108 14.046 111.047 14.046C110.986 14.046 110.924 14.046 110.863 14.046C110.817 14.046 110.763 14.046 110.702 14.046C110.564 14.0613 110.426 14.0767 110.288 14.092C110.15 14.1073 110.02 14.1227 109.897 14.138C109.82 14.1533 109.744 14.1687 109.667 14.184C109.606 14.184 109.544 14.1917 109.483 14.207C109.422 14.2223 109.36 14.2377 109.299 14.253C109.238 14.253 109.184 14.253 109.138 14.253C109.046 14.2837 108.969 14.3143 108.908 14.345C108.862 14.3603 108.816 14.3757 108.77 14.391V18.071H104.768V6.87H108.77V10.573C108.893 10.4963 109.031 10.4273 109.184 10.366C109.337 10.3047 109.514 10.2433 109.713 10.182C109.912 10.136 110.15 10.1053 110.426 10.09C110.702 10.0593 111.016 10.044 111.369 10.044ZM104.745 25.408V22.303H92.3249V18.853H108.77V25.408H104.745Z" fill="#2A3E6C"/>
</svg>
