<svg width="292" height="30" viewBox="0 0 292 30" fill="none" xmlns="http://www.w3.org/2000/svg">
<path d="M288.256 5.24756H291.556V10.5606H288.256V16.4346H282.679V0.924561H288.256V5.24756ZM271.756 10.9236C269.413 14.0256 265.915 16.0716 261.79 16.3026V11.3196C266.245 10.7916 269.182 6.66656 269.281 1.05656L274.891 1.38656C274.891 3.23456 274.594 5.01656 274 6.69956L281.656 11.5506L278.818 15.5766L271.756 10.9236ZM275.815 16.8306C282.91 16.8306 288.52 18.4476 288.52 23.1336C288.52 27.8196 282.91 29.4366 275.815 29.4366C268.72 29.4366 263.11 27.8196 263.11 23.1336C263.11 18.4476 268.72 16.8306 275.815 16.8306ZM275.815 24.9816C279.544 24.9816 282.514 24.4866 282.514 23.1336C282.514 21.8136 279.544 21.2856 275.815 21.2856C272.086 21.2856 269.116 21.8136 269.116 23.1336C269.116 24.4866 272.086 24.9816 275.815 24.9816Z" fill="#3E3E3E"/>
<path d="M249.055 2.57444V6.66644H229.783V2.57444H236.581V0.429443H242.257V2.57444H249.055ZM259.813 7.85444H256.513V9.93344H259.813V14.5864H256.513V17.9524H250.936V0.924443H256.513V3.20144H259.813V7.85444ZM239.419 17.7214C234.766 17.7214 230.839 16.0714 230.839 12.5404C230.839 9.00945 234.766 7.35944 239.419 7.35944C244.072 7.35944 247.999 9.00945 247.999 12.5404C247.999 16.0714 244.072 17.7214 239.419 17.7214ZM239.419 11.2864C237.406 11.2864 236.086 11.7484 236.086 12.5404C236.086 13.3324 237.406 13.7944 239.419 13.7944C241.432 13.7944 242.752 13.3324 242.752 12.5404C242.752 11.7484 241.432 11.2864 239.419 11.2864ZM244.105 18.2824C251.2 18.2824 256.744 19.6684 256.744 23.8594C256.744 28.0504 251.2 29.4364 244.105 29.4364C237.01 29.4364 231.466 28.0504 231.466 23.8594C231.466 19.6684 237.01 18.2824 244.105 18.2824ZM244.105 25.2784C247.867 25.2784 250.837 24.9484 250.837 23.8594C250.837 22.8034 247.867 22.4404 244.105 22.4404C240.343 22.4404 237.373 22.8034 237.373 23.8594C237.373 24.9484 240.343 25.2784 244.105 25.2784Z" fill="#3E3E3E"/>
<path d="M220.216 0.924561H225.694V18.4806H220.216V14.5206H217.279V16.9626C215.827 17.4576 213.121 17.7876 210.481 17.7876H199.096V7.49156H209.524V5.54456H199.03V1.25456H215.002V11.5176H204.607V13.4976H210.778C212.956 13.4976 215.068 13.2996 216.553 12.9366V9.86756H220.216V8.05256H216.553V3.39956H220.216V0.924561ZM200.35 24.1236V19.4706H225.694V29.4366H220.018V24.1236H200.35Z" fill="#3E3E3E"/>
<path d="M185.569 2.77244V7.02944H166.297V2.77244H173.095V0.429443H178.771V2.77244H185.569ZM196.327 6.76544V12.1774H193.027V18.8104H187.45V0.924443H193.027V6.76544H196.327ZM175.933 18.8104C171.247 18.8104 167.287 16.9294 167.287 13.2664C167.287 9.63644 171.247 7.72244 175.933 7.72244C180.553 7.72244 184.579 9.63644 184.579 13.2664C184.579 16.9294 180.619 18.8104 175.933 18.8104ZM175.933 11.6824C173.92 11.6824 172.6 12.3094 172.6 13.2664C172.6 14.2234 173.92 14.8504 175.933 14.8504C177.946 14.8504 179.266 14.2234 179.266 13.2664C179.266 12.3094 177.946 11.6824 175.933 11.6824ZM168.013 24.4534V19.8004H193.027V29.4364H187.351V24.4534H168.013Z" fill="#3E3E3E"/>
<path d="M151.276 7.72256H155.236V10.8576H151.276V21.8466H148.009V0.924561H151.276V7.72256ZM143.224 1.41956V17.2926H126.757V1.41956H129.958V6.33656H140.023V1.41956H143.224ZM129.958 14.4876H140.023V9.10856H129.958V14.4876ZM131.014 19.7346V25.7736H152.035V28.7436H127.714V19.7346H131.014Z" fill="#3E3E3E"/>
<path d="M117.057 29.1066V0.924561H120.324V29.1066H117.057ZM95.3434 27.3576V24.2556C103.032 24.2226 107.652 18.2496 107.652 8.81156V4.95056H95.3434V1.94756H110.985V8.74556C110.985 20.0316 104.979 27.3576 95.3434 27.3576Z" fill="#3E3E3E"/>
<path d="M85.5452 15.3456V8.58056H80.8592V5.84156H85.5452V0.924561H88.8122V15.3456H85.5452ZM82.0142 13.3656C80.2652 14.1246 76.8662 14.5866 72.8732 14.5866H63.4352V1.61756H80.0012V4.05956H66.6692V6.89756H78.8132V9.24056H66.6692V12.1446H73.1372C76.9652 12.1446 80.1992 11.6826 82.0142 10.9236V13.3656ZM68.0882 26.3016H89.4062V28.7436H64.8542V21.6486H85.5122V19.3386H64.7882V16.8966H88.7132V23.9586H68.0882V26.3016Z" fill="#3E3E3E"/>
<path d="M53.5711 0.924561H56.8381V29.1066H53.5711V0.924561ZM42.5821 4.95056C42.5491 8.21756 42.2191 11.2206 41.6911 13.8606L50.8981 25.2456L48.3241 27.1926L40.7341 17.5236C38.7871 23.4306 35.4211 26.9286 31.1641 27.4236V24.1896C36.1801 23.2656 39.1501 15.4116 39.2821 4.95056H31.8241V1.94756H49.8091V4.95056H42.5821Z" fill="#3E3E3E"/>
<path d="M21.8279 29.1396V0.924561H25.0949V29.1066L21.8279 29.1396ZM0.443909 27.4236V1.94756H17.0099V4.95056H3.74391V24.4206H11.9279C14.6009 24.4206 17.5049 23.8926 19.2209 23.0676V26.0706C17.5049 26.8956 14.5349 27.4236 11.8289 27.4236H0.443909Z" fill="#3E3E3E"/>
</svg>
