<svg width="276" height="54" viewBox="0 0 276 54" fill="none" xmlns="http://www.w3.org/2000/svg">
<path d="M266.076 0.622559H275.872V31.9946H266.076V0.622559ZM252.746 31.4366V18.4786H248.778V9.30256H252.746V0.870559H262.418V31.4366H252.746ZM250.266 29.2046C247.476 30.3826 242.392 31.0646 237.432 31.0646H224.102V1.24256H247.166V9.17856H233.836V12.4026H246.112V19.9046H233.836V23.1906H238.052C242.826 23.1906 247.476 22.5086 250.266 21.4546V29.2046ZM227.14 53.5706V33.8546H275.872V53.5706H227.14ZM237.432 41.9146V45.5106H265.58V41.9146H237.432Z" fill="#3E3E3E"/>
<path d="M137.814 20.7725C131.676 29.0805 122.562 34.3505 112.456 34.4125V24.4925C122.996 24.4305 132.792 14.6345 134.714 0.436523L145.378 2.11052C144.882 5.83052 143.89 9.30252 142.464 12.5885L165.032 26.1665L159.514 34.6605L137.814 20.7725ZM111.402 51.7105V41.9145H164.97V51.7105H111.402Z" fill="#3E3E3E"/>
<path d="M40.3665 0.622559H50.8445V53.5706H40.3665V0.622559ZM25.3005 2.04856C25.3005 9.92256 24.5565 16.9906 23.2545 23.1286L38.9405 44.9526L30.4465 51.0286L19.5345 35.2186C15.0705 45.3866 8.25054 51.0286 0.12854 51.0906V40.3026C8.62254 39.3106 14.5745 23.8106 14.6365 1.67656L25.3005 2.04856Z" fill="#3E3E3E"/>
</svg>
