<svg width="800" height="800" viewBox="0 0 800 800" fill="none" xmlns="http://www.w3.org/2000/svg">
<g style="mix-blend-mode:multiply">
<path fill-rule="evenodd" clip-rule="evenodd" d="M338.497 170.099C211.381 204.16 135.945 334.82 170.005 461.936C204.066 589.052 334.725 664.488 461.841 630.427C588.957 596.367 664.394 465.707 630.333 338.591C618.826 295.647 644.311 251.506 687.255 239.999C730.199 228.492 774.34 253.977 785.847 296.921C842.921 509.925 716.515 728.867 503.511 785.941C290.507 843.015 71.5655 716.609 14.4913 503.605C-42.583 290.601 83.823 71.6597 296.827 14.5854C418.658 -18.0592 542.488 9.4023 636.625 78.5107C672.464 104.82 680.188 155.202 653.878 191.04C627.569 226.878 577.187 234.603 541.349 208.293C484.899 166.852 411.147 150.633 338.497 170.099Z" fill="url(#paint0_linear_178_551)"/>
</g>
<defs>
<linearGradient id="paint0_linear_178_551" x1="317.662" y1="92.3424" x2="482.676" y2="708.184" gradientUnits="userSpaceOnUse">
<stop stop-color="#EEEEEE"/>
<stop offset="1" stop-color="#F9F9F9"/>
</linearGradient>
</defs>
</svg>
