<svg width="139" height="133" viewBox="0 0 139 133" fill="none" xmlns="http://www.w3.org/2000/svg">
<path d="M126.182 53.6462C126.182 53.6462 123.045 53.3276 122.131 53.3675C117.405 53.5666 118.636 53.3675 113.473 53.3675C102.55 53.3675 91.7473 52.9692 81.0633 52.1328V15.8908C81.0633 7.12894 73.9539 0 65.2161 0C56.4782 0 49.3688 7.12894 49.3688 15.8908V48.5086C39.4394 46.9952 29.5895 45.1234 19.8984 42.8931C18.9849 42.694 15.8473 42.3754 15.8473 42.3754C7.10943 42.3754 0 49.5043 0 58.2661C0 65.7933 5.2427 72.0859 12.233 73.7586C12.9876 73.9179 15.8473 74.5551 15.8473 74.5551C23.1156 76.1482 30.4633 77.5819 37.8507 78.8166L20.5339 108.886C19.1041 111.275 18.27 114.103 18.27 117.09C18.27 125.852 25.3795 132.981 34.1173 132.981C40.0749 132.981 45.2779 129.675 47.9787 124.776L65.2161 94.8268L82.4137 124.736C83.7641 127.206 85.7897 129.356 88.4111 130.87C95.9971 135.251 105.688 132.662 110.057 125.055C113.036 119.838 112.798 113.665 109.898 108.886L96.0368 84.7905C101.836 85.0295 107.634 85.1091 113.473 85.1091C118.795 85.1091 117.286 85.3083 122.568 85.1091C123.045 85.0693 123.482 85.0693 123.68 85.0295C130.869 84.7905 137.224 79.6131 138.693 72.2054C140.401 63.6028 134.801 55.2393 126.222 53.5268L126.182 53.6462Z" fill="#0098ED"/>
</svg>
