<svg width="127" height="81" viewBox="0 0 127 81" fill="none" xmlns="http://www.w3.org/2000/svg">
<path fill-rule="evenodd" clip-rule="evenodd" d="M39.8038 65.04C52.9368 65.04 64.0687 54.1088 64.0687 40.02C64.0687 25.9312 52.9368 15 39.8038 15C26.6707 15 15.5389 25.9312 15.5389 40.02C15.5389 54.1088 26.6707 65.04 39.8038 65.04ZM39.8038 80.04C61.4892 80.04 79.0687 62.1224 79.0687 40.02C79.0687 17.9176 61.4892 0 39.8038 0C18.1184 0 0.538879 17.9176 0.538879 40.02C0.538879 62.1224 18.1184 80.04 39.8038 80.04Z" fill="#3E3E3E"/>
<path fill-rule="evenodd" clip-rule="evenodd" d="M85.1822 49.5969C85.1822 38.0906 94.5099 28.7628 106.016 28.7628C117.523 28.7628 126.85 38.0906 126.85 49.5969V72.8418H113.85V49.5969C113.85 45.2703 110.343 41.7628 106.016 41.7628C101.69 41.7628 98.1822 45.2703 98.1822 49.5969V72.8418H85.1822V49.5969Z" fill="#3E3E3E"/>
</svg>
