<svg width="486" height="66" viewBox="0 0 486 66" fill="none" xmlns="http://www.w3.org/2000/svg">
<path d="M477.867 61.1359V53.5759H485.211V61.1359H477.867Z" fill="#3E3E3E"/>
<path d="M453.52 2.31189H459.496V26.5759H469.864V31.6879H459.496V64.0159H453.52V2.31189ZM410.464 44.4319V7.56789C410.464 6.05589 411.256 5.19189 412.912 5.19189H442.36V10.3039H416.368V44.2879C416.368 46.4479 417.088 47.4559 417.952 48.2479L420.472 51.0559C421.336 51.9199 422.272 52.5679 423.928 52.5679H444.52V57.8239H422.92C419.464 57.8239 418.096 57.2479 416.08 54.9439L413.2 51.7039C411.328 49.6159 410.464 48.4639 410.464 44.4319Z" fill="#3E3E3E"/>
<path d="M351.988 4.32789V44.5759C351.988 46.2319 352.781 47.0959 353.501 48.0319L356.021 50.9839C356.885 51.9199 357.893 52.5679 359.477 52.5679H382.661V57.7519H358.469C355.013 57.7519 353.645 57.2479 351.629 54.8719L348.82 51.4879C346.948 49.2559 346.085 48.2479 346.085 44.2879V4.32789H351.988ZM391.661 2.31189H397.493V64.0159H391.661V2.31189Z" fill="#3E3E3E"/>
<path d="M291.209 41.984V48.5359H322.457V41.984H328.433V62.0719C328.433 63.5839 327.569 64.3759 325.985 64.3759H293.945C292.361 64.3759 290.921 64.088 289.985 63.152L286.889 60.1279C285.809 59.1919 285.377 57.968 285.377 56.456V41.984H291.209ZM293.585 16.2799H299.201C307.193 16.2799 311.657 19.8079 311.657 26.5039C311.657 33.1279 307.193 36.5119 299.201 36.5119H293.657C285.809 36.5119 280.985 33.1279 280.985 26.5039C280.985 19.8079 285.737 16.2799 293.585 16.2799ZM328.433 24.0559V38.3839H322.457V2.31195H328.433V18.9439H338.801V24.0559H328.433ZM278.681 12.1759V7.06395H293.297V0.871948H299.201V7.06395H314.105V12.1759H278.681ZM291.209 53.36V56.024C291.209 56.672 291.497 57.1759 291.929 57.5359L293.513 58.9039C293.873 59.1919 294.233 59.4079 294.953 59.4079H322.457V53.36H291.209ZM293.657 31.4719H299.201C303.233 31.4719 305.969 29.8159 305.969 26.5039C305.969 23.1199 303.233 21.3919 299.201 21.3919H293.585C289.337 21.3919 286.745 23.0479 286.745 26.5039C286.745 29.8159 289.409 31.4719 293.657 31.4719Z" fill="#3E3E3E"/>
<path d="M262.902 22.3999V37.8079H256.926V2.31189H262.902V17.2879H273.27V22.3999H262.902ZM217.254 42.4879H260.742C262.11 42.4879 262.902 43.1359 262.902 44.5039V65.1679H256.998V47.3839H217.254V42.4879ZM212.502 8.93589V4.03989H247.278V8.93589H232.734V18.5839C232.734 19.5199 233.382 20.1679 233.958 20.8879C238.35 25.2079 243.246 29.4559 248.502 33.7039L245.334 37.4479C240.078 33.1999 235.254 29.3119 230.646 24.9199C230.286 24.4159 229.998 24.1279 229.782 23.7679C229.638 24.1999 229.206 24.4159 228.774 24.9199C224.166 29.4559 219.27 33.7759 214.086 37.7359L210.846 33.9919C216.03 29.5999 220.926 25.3519 225.246 20.8879C225.966 20.1679 226.614 19.5199 226.614 18.5839V8.93589H212.502Z" fill="#3E3E3E"/>
<path d="M170.011 32.6239C175.339 40.3279 180.451 47.5999 186.499 54.2239L182.251 57.6799C176.563 50.9119 171.379 44.3599 166.843 37.6639C166.555 37.3759 166.411 36.9439 166.339 36.4399C166.267 36.9439 166.051 37.3759 165.835 37.6639C161.155 44.5759 156.187 51.4159 150.715 58.1119L146.395 54.7999C152.299 47.6719 157.555 40.3999 162.451 32.6239C163.099 31.6159 163.243 30.7519 163.243 29.6719V3.60789H169.219V29.6719C169.219 30.7519 169.363 31.6879 170.011 32.6239ZM195.067 2.31189H200.899V64.0159H195.067V2.31189Z" fill="#3E3E3E"/>
<path d="M112.284 20.096V9.44001H69.9476V4.328H115.956C117.468 4.328 118.116 4.976 118.116 6.344V22.112C118.116 24.56 116.46 26 113.652 26H75.9236V32.624C75.9236 34.064 76.2836 34.496 77.0036 35.36L78.0116 36.368C78.6596 37.16 79.4516 37.52 80.7476 37.52H118.836V42.632H97.0916V55.448H122.436V60.632H66.2756V55.448H91.2596V42.632H79.4516C77.2196 42.632 75.9236 42.272 74.6276 40.976L71.7476 38.168C70.4516 36.872 69.9476 35.72 69.9476 33.488V23.12C69.9476 21.824 70.7396 21.032 72.1796 21.032H111.276C111.996 21.032 112.284 20.816 112.284 20.096Z" fill="#3E3E3E"/>
<path d="M56.8324 60.0559H0.600403V55.0159H56.8324V60.0559ZM23.3524 4.83191H34.2244C46.4644 4.83191 53.2324 12.1759 53.2324 22.6159C53.2324 32.9119 46.4644 40.1119 34.2244 40.1119H23.4244C11.2564 40.1119 4.2004 32.9119 4.2004 22.6159C4.2004 12.1039 11.1844 4.83191 23.3524 4.83191ZM23.4244 35.0719H34.2244C42.5764 35.0719 47.4724 29.5999 47.4724 22.6159C47.4724 15.4879 42.5764 10.0159 34.2244 10.0159H23.3524C14.9284 10.0159 9.8884 15.4159 9.8884 22.6159C9.8884 29.5999 15.0004 35.0719 23.4244 35.0719Z" fill="#3E3E3E"/>
</svg>
